<?xml version="1.0" encoding="UTF-8"?>
<svg id="Layer_1" xmlns="http://www.w3.org/2000/svg" xmlns:xlink="http://www.w3.org/1999/xlink" viewBox="0 0 358.03 631.15">
  <defs>
    <style>
      .cls-1 {
        clip-path: url(#clippath-21);
      }

      .cls-2 {
        clip-path: url(#clippath-6);
      }

      .cls-3 {
        clip-path: url(#clippath-7);
      }

      .cls-4 {
        clip-path: url(#clippath-17);
      }

      .cls-5 {
        clip-path: url(#clippath-15);
      }

      .cls-6 {
        clip-path: url(#clippath-18);
      }

      .cls-7 {
        clip-path: url(#clippath-4);
      }

      .cls-8 {
        clip-path: url(#clippath-22);
      }

      .cls-9 {
        fill: #0d0d0e;
      }

      .cls-10 {
        clip-path: url(#clippath-9);
      }

      .cls-11 {
        clip-path: url(#clippath-10);
      }

      .cls-12 {
        fill: #2c6449;
      }

      .cls-13 {
        clip-path: url(#clippath-11);
      }

      .cls-14 {
        fill: none;
      }

      .cls-15 {
        clip-path: url(#clippath-1);
      }

      .cls-16 {
        clip-path: url(#clippath-5);
      }

      .cls-17 {
        clip-path: url(#clippath-20);
      }

      .cls-18 {
        clip-path: url(#clippath-8);
      }

      .cls-19 {
        clip-path: url(#clippath-3);
      }

      .cls-20 {
        clip-path: url(#clippath-12);
      }

      .cls-21 {
        clip-path: url(#clippath-14);
      }

      .cls-22 {
        clip-path: url(#clippath-19);
      }

      .cls-23 {
        clip-path: url(#clippath-16);
      }

      .cls-24 {
        clip-path: url(#clippath-2);
      }

      .cls-25 {
        clip-path: url(#clippath-13);
      }

      .cls-26 {
        clip-path: url(#clippath);
      }
    </style>
    <clipPath id="clippath">
      <rect class="cls-14" x="58.58" y="312.45" width="31.94" height="207.57"/>
    </clipPath>
    <clipPath id="clippath-1">
      <rect class="cls-14" x="42.58" y="312.45" width="6.95" height="207.57"/>
    </clipPath>
    <clipPath id="clippath-2">
      <rect class="cls-14" x="103.23" y="312.45" width="20.44" height="207.57"/>
    </clipPath>
    <clipPath id="clippath-3">
      <rect class="cls-14" x="180.9" y="92.99" width="172" height="42.29"/>
    </clipPath>
    <clipPath id="clippath-4">
      <path class="cls-14" d="M224.44,110.02l18.34,19.86c7.73-.28,15.18-.4,22.33-.41l-4.28-19.45,18.06,19.55c8.68.15,16.79.48,24.22.87l-4.52-20.42,19.79,21.41c20.87,1.61,33.38,3.61,33.38,3.61-95.13-93.73-170.68,0-170.68,0,16.54-2.25,32.62-3.69,47.89-4.54l-4.51-20.48h-.03Z"/>
    </clipPath>
    <clipPath id="clippath-5">
      <rect class="cls-14" x="77.8" y="137.95" width="113.09" height="129.33"/>
    </clipPath>
    <clipPath id="clippath-6">
      <path class="cls-14" d="M143.04,154.26l2.96,26.88c-5.28,5.65-10.26,11.19-14.95,16.59l-11.87-15.99,2.91,26.47c-5.58,6.66-10.66,12.99-15.23,18.84l-12.45-16.79,3.18,28.97c-12.47,16.82-19.17,27.57-19.17,27.57-8.35-133.3,111.96-128.83,111.96-128.83-12.55,11-24.18,22.2-34.85,33.17l-12.48-16.85v-.02Z"/>
    </clipPath>
    <clipPath id="clippath-7">
      <rect class="cls-14" x="30.05" y="126.92" width="152.05" height="88.36"/>
    </clipPath>
    <clipPath id="clippath-8">
      <path class="cls-14" d="M131.25,134.07l-7.05,26.09c-6.96,3.33-13.63,6.67-19.96,9.98l-5.21-19.21-6.95,25.7c-7.62,4.17-14.67,8.2-21.06,11.98l-5.46-20.18-7.61,28.15c-17.74,11.1-27.88,18.68-27.88,18.68,40.83-127.17,151.22-79.12,151.22-79.12-15.7,5.66-30.61,11.84-44.55,18.18l-5.49-20.24v-.02Z"/>
    </clipPath>
    <clipPath id="clippath-9">
      <rect class="cls-14" x="30.23" y="56.61" width="156" height="81.33"/>
    </clipPath>
    <clipPath id="clippath-10">
      <path class="cls-14" d="M156.8,97.22l-24.86,10.61c-6.93-3.4-13.68-6.57-20.2-9.52l11.87-15.97-24.48,10.44c-7.99-3.42-15.52-6.44-22.44-9.12l12.46-16.78-26.81,11.44c-19.71-7.07-31.93-10.38-31.93-10.38,125.15-46.59,155.73,69.84,155.73,69.84-14.17-8.82-28.26-16.71-41.84-23.75l12.52-16.83h-.02Z"/>
    </clipPath>
    <clipPath id="clippath-11">
      <rect class="cls-14" x="180.9" y="6.28" width="114.3" height="129"/>
    </clipPath>
    <clipPath id="clippath-12">
      <path class="cls-14" d="M192.47,85.91l27.01-.82c4.87-6,9.66-11.7,14.34-17.11l-17.47-9.51,26.62-.81c5.81-6.44,11.38-12.37,16.54-17.69l-18.36-9.99,29.14-.88c14.92-14.68,24.63-22.8,24.63-22.8-133.16,10.24-112.02,128.77-112.02,128.77,9.15-13.96,18.63-27.04,28.01-39.12l-18.43-10.02h0Z"/>
    </clipPath>
    <clipPath id="clippath-13">
      <rect class="cls-14" x="180.9" y="135.28" width="90.43" height="149.97"/>
    </clipPath>
    <clipPath id="clippath-14">
      <path class="cls-14" d="M224.46,161.3l-8.56,25.64c3.95,6.64,7.64,13.1,11.1,19.37l14.97-13.12-8.43,25.25c4.05,7.69,7.68,14.94,10.9,21.64l15.72-13.8-9.23,27.64c8.64,19.07,12.91,31.01,12.91,31.01,36.32-128.53-82.21-149.6-82.21-149.6,9.94,13.42,18.94,26.81,27.05,39.79l15.77-13.82h.01Z"/>
    </clipPath>
    <clipPath id="clippath-15">
      <rect class="cls-14" x="175.82" y="127.28" width="139.74" height="103.93"/>
    </clipPath>
    <clipPath id="clippath-16">
      <path class="cls-14" d="M225.81,136.21l3.52,26.8c6.47,4.23,12.62,8.43,18.48,12.55l7.7-18.36,3.49,26.39c6.99,5.14,13.44,10.07,19.27,14.67l8.09-19.27,3.83,28.9c16.11,13.36,25.17,22.19,25.17,22.19-23.65-131.42-139.42-98.43-139.42-98.43,14.81,7.69,28.77,15.8,41.76,23.9l8.11-19.33Z"/>
    </clipPath>
    <clipPath id="clippath-17">
      <rect class="cls-14" x="164.6" y="135.48" width="32.46" height="385.22"/>
    </clipPath>
    <clipPath id="clippath-18">
      <rect class="cls-14" x="140.67" y="312.44" width="12.94" height="207.57"/>
    </clipPath>
    <clipPath id="clippath-19">
      <rect class="cls-14" x="254.7" y="312.44" width="15.61" height="207.57"/>
    </clipPath>
    <clipPath id="clippath-20">
      <rect class="cls-14" x="212.82" y="312.44" width="31.94" height="207.57"/>
    </clipPath>
    <clipPath id="clippath-21">
      <rect class="cls-14" x="282.05" y="312.44" width="23.1" height="207.57"/>
    </clipPath>
    <clipPath id="clippath-22">
      <rect class="cls-14" x="321.25" y="312.44" width="6.95" height="207.57"/>
    </clipPath>
  </defs>
  <g class="cls-26">
    <path class="cls-9" d="M36.29,306.16h60.53v220.13h-60.53v-220.13Z"/>
  </g>
  <g class="cls-15">
    <path class="cls-9" d="M36.29,306.16h60.53v220.13h-60.53v-220.13Z"/>
  </g>
  <g class="cls-24">
    <path class="cls-9" d="M103.23,312.45h20.45v207.55h-20.45v-207.55Z"/>
  </g>
  <g class="cls-19">
    <g class="cls-7">
      <path class="cls-12" d="M23.77,0h334.26v526.52H23.77V0Z"/>
    </g>
  </g>
  <g class="cls-16">
    <g class="cls-2">
      <path class="cls-12" d="M23.77,0h334.26v526.52H23.77V0Z"/>
    </g>
  </g>
  <g class="cls-3">
    <g class="cls-18">
      <path class="cls-12" d="M23.77,0h334.26v526.52H23.77V0Z"/>
    </g>
  </g>
  <g class="cls-10">
    <g class="cls-11">
      <path class="cls-12" d="M23.77,0h334.26v526.52H23.77V0Z"/>
    </g>
  </g>
  <g class="cls-13">
    <g class="cls-20">
      <path class="cls-12" d="M23.77,0h334.26v526.52H23.77V0Z"/>
    </g>
  </g>
  <g class="cls-25">
    <g class="cls-21">
      <path class="cls-12" d="M23.77,0h334.26v526.52H23.77V0Z"/>
    </g>
  </g>
  <g class="cls-5">
    <g class="cls-23">
      <path class="cls-12" d="M23.77,0h334.26v526.52H23.77V0Z"/>
    </g>
  </g>
  <g class="cls-4">
    <path class="cls-12" d="M23.77,0h334.26v526.52H23.77V0Z"/>
  </g>
  <g class="cls-6">
    <path class="cls-9" d="M23.77,0h334.26v526.52H23.77V0Z"/>
  </g>
  <g class="cls-22">
    <path class="cls-9" d="M23.77,0h334.26v526.52H23.77V0Z"/>
  </g>
  <g class="cls-17">
    <path class="cls-9" d="M23.77,0h334.26v526.52H23.77V0Z"/>
  </g>
  <g class="cls-1">
    <path class="cls-9" d="M23.77,0h334.26v526.52H23.77V0Z"/>
  </g>
  <g class="cls-8">
    <path class="cls-9" d="M23.77,0h334.26v526.52H23.77V0Z"/>
  </g>
  <path d="M100.88,580.42c0,3.53-2.29,7.76-6.85,12.69-3.43,3.61-8.64,6.6-15.63,8.98-6.21,2.09-11.85,3.15-16.94,3.15s-8.69-.74-11.6-2.21c0,5.86-1.2,10.73-3.6,14.6-1.56,2.57-4.24,5.04-8.04,7.42-5.41,3.25-11.34,4.88-17.81,4.88-7.61,0-13.17-1.96-16.67-5.88-2.49-2.77-3.73-6.13-3.73-10.08,0-4.2.97-8.37,2.92-12.52,1.67-3.57,2.96-5.35,3.9-5.35.78,0,1.17.39,1.17,1.17,0,.04-.6,1.46-1.79,4.25-1.18,2.79-1.77,5.23-1.77,7.33,0,8.43,6.08,12.65,18.25,12.65,10.75,0,18.53-2.74,23.35-8.21,0-6.72-1.54-12.82-4.6-18.29l3.08-7.4c.3,0,1.78,1.93,4.42,5.77,1.01,1.52,3.27,2.27,6.77,2.27,15.29-15.3,26.55-22.96,33.77-22.96,2.72,0,5.3.81,7.75,2.42,2.44,1.61,3.67,3.39,3.67,5.33ZM94.83,584.84c0-1.13-1.12-2.14-3.35-3.04-2.24-.92-4.54-1.38-6.9-1.38-5.68,0-13.84,5.34-24.48,16.02h2.98c5.67,0,12.38-1.41,20.13-4.23,7.75-2.82,11.63-5.28,11.63-7.38Z"/>
  <path d="M148.7,604.07h-2.63c-.58,3.76-2.95,8.3-7.1,13.63-5.32,6.76-10.97,10.15-16.96,10.15-3.38,0-7.01-.95-10.9-2.85-3.57-1.75-5.35-3.11-5.35-4.08,0-.58.35-.88,1.06-.88-.08,0,.92.28,3.02.83,2.09.57,4.19.85,6.29.85,7.65,0,14.33-3.15,20.04-9.44,3.33-3.66,5.33-6.43,6-8.33-1.13.17-2.76.25-4.9.25-3.42,0-6.12-.92-8.1-2.75-1.71-1.51-2.56-3.3-2.56-5.35,0-3.03,1.17-6.27,3.5-9.73,2.44-3.61,4.86-5.42,7.27-5.42,3.73,0,6.67,4.9,8.81,14.69.84-.28,1.68-.42,2.5-.42v8.85ZM141.66,596.45c-1.91-5.75-4.08-8.63-6.54-8.63-.96,0-1.92.59-2.88,1.77-.95,1.18-1.42,2.4-1.42,3.65,0,.93.59,1.8,1.77,2.6,1.18.79,2.67,1.19,4.46,1.19s3.27-.19,4.6-.58Z"/>
  <path d="M148.69,604.07c-2.72,0-4.08-1.47-4.08-4.42s1.36-4.44,4.08-4.44h28.9v8.85h-28.9Z"/>
  <path d="M216.26,543.32c0,1.02-.26,2.18-.77,3.48-.5,1.29-1.26,2.62-2.27,3.98.54.43,1.03.84,1.48,1.23.46.38.69.66.69.85,0,.17-.14.43-.4.77-.25.35-.55.7-.9,1.04-.35.35-.69.66-1.02.94-.32.27-.56.4-.73.4-.22,0-.45-.07-.69-.23-.24-.15-.48-.32-.73-.52-.25-.19-.49-.39-.73-.58-.24-.19-.47-.34-.71-.46-1.47,1.24-3.13,2.21-4.96,2.92-1.82.7-3.74,1.04-5.75,1.04-2.25,0-3.93-.19-5.04-.58-1.11-.39-1.67-.83-1.67-1.33,0-.39.29-.58.88-.58.82,0,1.83-.07,3.02-.21,1.21-.14,2.47-.34,3.79-.6,1.33-.28,2.63-.63,3.88-1.06,1.26-.43,2.36-.92,3.29-1.46-.66-.46-1.29-.92-1.92-1.38-.63-.47-1.18-.96-1.67-1.46-.49-.51-.88-1.06-1.17-1.65-.28-.58-.42-1.21-.42-1.88,0-.89.33-1.86,1-2.94.68-1.07,1.84-2.05,3.48-2.94,1.08-.54,2.11-.92,3.08-1.13.97-.22,1.9-.33,2.79-.33,1.36,0,2.39.43,3.08,1.29.71.85,1.06,1.97,1.06,3.38ZM212.47,545.01c0-.89-.22-1.6-.67-2.15-.45-.55-1.12-.83-2.02-.83s-1.7.26-2.42.77c-.71.5-1.06,1.02-1.06,1.56,0,1.71,1.49,3.46,4.48,5.25.46-.67.85-1.38,1.19-2.13.33-.76.5-1.59.5-2.48Z"/>
  <path d="M236.18,584.84c0-1.13-1.12-2.14-3.35-3.04-2.24-.92-4.54-1.38-6.9-1.38-5.68,0-13.84,5.34-24.48,16.02h2.98c5.67,0,12.38-1.41,20.13-4.23,7.75-2.82,11.63-5.28,11.63-7.38ZM242.22,580.42c0,3.53-2.29,7.76-6.85,12.69-3.43,3.61-8.64,6.6-15.63,8.98-6.21,2.09-11.85,3.15-16.94,3.15-4.47,0-7.81-.83-10.02-2.5-1.79-1.36-3.31-3.73-4.54-7.1-2.57,5.28-6.13,8.09-10.67,8.44-2.72,0-4.08-1.47-4.08-4.42s1.36-4.44,4.08-4.44h1c2.86,0,5.36-1.13,7.52-3.38,2.17-2.25,3.19-3.38,3.06-3.38.47,0,.88.39,1.23,1.17,1.55,4,3.77,6,6.65,6,15.26-15.3,26.52-22.96,33.77-22.96,2.72,0,5.3.81,7.75,2.42,2.44,1.61,3.67,3.39,3.67,5.33Z"/>
  <path d="M290.05,604.07h-3.56c-2.83,9.17-6.64,16.09-11.42,20.79-4.27,4.19-8.93,6.29-13.98,6.29-2.02,0-4.05-.49-6.1-1.46-5.25-2.45-7.88-4.27-7.88-5.48,0-.7.35-1.04,1.06-1.04.22,0,1.19.17,2.9.52,1.71.34,3.5.52,5.38.52,5.13,0,10.38-2.2,15.77-6.58,5.21-4.22,8.9-9.09,11.08-14.6-4.08-2.07-6.13-3.74-6.13-5.02l1.33-6.58c.08-.54.28-.81.58-.81-.04,0,1.09.77,3.4,2.31,2.32,1.53,4.41,2.29,6.27,2.29h1.29v8.85Z"/>
  <path d="M290.04,604.07c-2.72,0-4.08-1.47-4.08-4.42s1.36-4.44,4.08-4.44h28.9v8.85h-28.9Z"/>
  <path d="M349.5,549.49l-1.85,4.38-21.5,6.58,1.94-4.44,21.42-6.52Z"/>
  <path d="M351.89,593.95c0,1.39-.5,2.98-1.5,4.77-1.13,2.14-2.43,3.21-3.92,3.21-5.78,0-11.21-2.06-16.29-6.19-3.11,5.56-6.69,8.33-10.73,8.33h-.52c-2.72,0-4.08-1.47-4.08-4.42s1.36-4.44,4.08-4.44h2.5c3.26,0,6.74-2.7,10.44-8.1,2.79-4.11,4.82-6.78,6.1-8.02,1.44-1.33,3.05-2,4.83-2,2.09,0,4.16,1.99,6.19,5.96,1.93,3.81,2.9,7.44,2.9,10.9ZM346.14,593.01c0-1.32-.63-3.07-1.88-5.25-1.39-2.4-2.71-3.6-3.96-3.6-.82,0-1.85.66-3.08,1.98-1.13,1.13-1.93,2.21-2.4,3.25.58,1.14,2.29,2.21,5.13,3.21,2.42.91,4.21,1.35,5.38,1.35.54,0,.81-.31.81-.94Z"/>
</svg>