<?xml version="1.0" encoding="UTF-8"?>
<svg id="Layer_1" xmlns="http://www.w3.org/2000/svg" xmlns:xlink="http://www.w3.org/1999/xlink" viewBox="0 0 184.47 229.89">
  <defs>
    <style>
      .cls-1 {
        clip-path: url(#clippath-21);
      }

      .cls-2 {
        clip-path: url(#clippath-6);
      }

      .cls-3 {
        clip-path: url(#clippath-7);
      }

      .cls-4 {
        clip-path: url(#clippath-17);
      }

      .cls-5 {
        clip-path: url(#clippath-15);
      }

      .cls-6 {
        clip-path: url(#clippath-18);
      }

      .cls-7 {
        clip-path: url(#clippath-4);
      }

      .cls-8 {
        clip-path: url(#clippath-22);
      }

      .cls-9 {
        fill: #0d0d0e;
      }

      .cls-10 {
        clip-path: url(#clippath-9);
      }

      .cls-11 {
        clip-path: url(#clippath-10);
      }

      .cls-12 {
        fill: #2c6449;
      }

      .cls-13 {
        clip-path: url(#clippath-11);
      }

      .cls-14 {
        fill: none;
      }

      .cls-15 {
        clip-path: url(#clippath-1);
      }

      .cls-16 {
        clip-path: url(#clippath-5);
      }

      .cls-17 {
        clip-path: url(#clippath-20);
      }

      .cls-18 {
        clip-path: url(#clippath-8);
      }

      .cls-19 {
        clip-path: url(#clippath-3);
      }

      .cls-20 {
        clip-path: url(#clippath-12);
      }

      .cls-21 {
        clip-path: url(#clippath-14);
      }

      .cls-22 {
        clip-path: url(#clippath-19);
      }

      .cls-23 {
        clip-path: url(#clippath-16);
      }

      .cls-24 {
        clip-path: url(#clippath-2);
      }

      .cls-25 {
        clip-path: url(#clippath-13);
      }

      .cls-26 {
        clip-path: url(#clippath);
      }
    </style>
    <clipPath id="clippath">
      <rect class="cls-14" x="52.33" y="112.82" width="10.81" height="70.27"/>
    </clipPath>
    <clipPath id="clippath-1">
      <rect class="cls-14" x="46.92" y="112.82" width="2.35" height="70.27"/>
    </clipPath>
    <clipPath id="clippath-2">
      <rect class="cls-14" x="67.45" y="112.82" width="6.92" height="70.27"/>
    </clipPath>
    <clipPath id="clippath-3">
      <rect class="cls-14" x="93.74" y="38.53" width="58.23" height="14.32"/>
    </clipPath>
    <clipPath id="clippath-4">
      <path class="cls-14" d="M108.48,44.29l6.21,6.72c2.62-.09,5.14-.14,7.56-.14l-1.45-6.58,6.11,6.62c2.94.05,5.68.16,8.2.29l-1.53-6.91,6.7,7.25c7.07.54,11.3,1.22,11.3,1.22-32.2-31.73-57.78,0-57.78,0,5.6-.76,11.04-1.25,16.21-1.54l-1.53-6.93h0Z"/>
    </clipPath>
    <clipPath id="clippath-5">
      <rect class="cls-14" x="58.84" y="53.75" width="38.29" height="43.78"/>
    </clipPath>
    <clipPath id="clippath-6">
      <path class="cls-14" d="M80.93,59.27l1,9.1c-1.79,1.91-3.47,3.79-5.06,5.62l-4.02-5.41.98,8.96c-1.89,2.25-3.61,4.4-5.16,6.38l-4.21-5.68,1.08,9.81c-4.22,5.69-6.49,9.33-6.49,9.33-2.83-45.13,37.9-43.61,37.9-43.61-4.25,3.72-8.19,7.52-11.8,11.23l-4.23-5.71h0Z"/>
    </clipPath>
    <clipPath id="clippath-7">
      <rect class="cls-14" x="42.67" y="50.01" width="51.47" height="29.91"/>
    </clipPath>
    <clipPath id="clippath-8">
      <path class="cls-14" d="M76.93,52.44l-2.39,8.83c-2.36,1.13-4.61,2.26-6.76,3.38l-1.76-6.5-2.35,8.7c-2.58,1.41-4.97,2.78-7.13,4.06l-1.85-6.83-2.58,9.53c-6.01,3.76-9.44,6.32-9.44,6.32,13.82-43.05,51.19-26.78,51.19-26.78-5.31,1.92-10.36,4.01-15.08,6.15l-1.86-6.85h0Z"/>
    </clipPath>
    <clipPath id="clippath-9">
      <rect class="cls-14" x="42.73" y="26.21" width="52.81" height="27.53"/>
    </clipPath>
    <clipPath id="clippath-10">
      <path class="cls-14" d="M85.58,39.96l-8.42,3.59c-2.35-1.15-4.63-2.22-6.84-3.22l4.02-5.41-8.29,3.54c-2.71-1.16-5.25-2.18-7.6-3.09l4.22-5.68-9.08,3.87c-6.67-2.39-10.81-3.51-10.81-3.51,42.37-15.77,52.72,23.64,52.72,23.64-4.8-2.99-9.57-5.66-14.16-8.04l4.24-5.7h0Z"/>
    </clipPath>
    <clipPath id="clippath-11">
      <rect class="cls-14" x="93.74" y="9.18" width="38.69" height="43.67"/>
    </clipPath>
    <clipPath id="clippath-12">
      <path class="cls-14" d="M97.66,36.13l9.14-.28c1.65-2.03,3.27-3.96,4.85-5.79l-5.92-3.22,9.01-.27c1.97-2.18,3.85-4.19,5.6-5.99l-6.22-3.38,9.87-.3c5.05-4.97,8.34-7.72,8.34-7.72-45.08,3.47-37.92,43.59-37.92,43.59,3.1-4.73,6.31-9.15,9.48-13.24l-6.24-3.39h0Z"/>
    </clipPath>
    <clipPath id="clippath-13">
      <rect class="cls-14" x="93.74" y="52.85" width="30.61" height="50.77"/>
    </clipPath>
    <clipPath id="clippath-14">
      <path class="cls-14" d="M108.49,61.65l-2.9,8.68c1.34,2.25,2.59,4.44,3.76,6.56l5.07-4.44-2.85,8.55c1.37,2.6,2.6,5.06,3.69,7.32l5.32-4.67-3.12,9.36c2.92,6.46,4.37,10.5,4.37,10.5,12.3-43.51-27.83-50.64-27.83-50.64,3.37,4.54,6.41,9.08,9.16,13.47l5.34-4.68h0Z"/>
    </clipPath>
    <clipPath id="clippath-15">
      <rect class="cls-14" x="92.02" y="50.14" width="47.31" height="35.18"/>
    </clipPath>
    <clipPath id="clippath-16">
      <path class="cls-14" d="M108.95,53.16l1.19,9.07c2.19,1.43,4.27,2.85,6.26,4.25l2.61-6.22,1.18,8.93c2.37,1.74,4.55,3.41,6.52,4.97l2.74-6.52,1.3,9.78c5.45,4.52,8.52,7.51,8.52,7.51-8.01-44.49-47.2-33.32-47.2-33.32,5.01,2.6,9.74,5.35,14.14,8.09l2.75-6.54Z"/>
    </clipPath>
    <clipPath id="clippath-17">
      <rect class="cls-14" x="88.22" y="52.91" width="10.99" height="130.41"/>
    </clipPath>
    <clipPath id="clippath-18">
      <rect class="cls-14" x="80.12" y="112.82" width="4.38" height="70.27"/>
    </clipPath>
    <clipPath id="clippath-19">
      <rect class="cls-14" x="118.72" y="112.82" width="5.28" height="70.27"/>
    </clipPath>
    <clipPath id="clippath-20">
      <rect class="cls-14" x="104.55" y="112.82" width="10.81" height="70.27"/>
    </clipPath>
    <clipPath id="clippath-21">
      <rect class="cls-14" x="127.98" y="112.82" width="7.82" height="70.27"/>
    </clipPath>
    <clipPath id="clippath-22">
      <rect class="cls-14" x="141.25" y="112.82" width="2.35" height="70.27"/>
    </clipPath>
  </defs>
  <g class="cls-26">
    <path class="cls-9" d="M44.79,110.69h20.49v74.52h-20.49v-74.52Z"/>
  </g>
  <g class="cls-15">
    <path class="cls-9" d="M44.79,110.69h20.49v74.52h-20.49v-74.52Z"/>
  </g>
  <g class="cls-24">
    <path class="cls-9" d="M67.45,112.82h6.92v70.26h-6.92v-70.26Z"/>
  </g>
  <g class="cls-19">
    <g class="cls-7">
      <path class="cls-12" d="M40.55,7.05h113.16v178.24H40.55V7.05Z"/>
    </g>
  </g>
  <g class="cls-16">
    <g class="cls-2">
      <path class="cls-12" d="M40.55,7.05h113.16v178.24H40.55V7.05Z"/>
    </g>
  </g>
  <g class="cls-3">
    <g class="cls-18">
      <path class="cls-12" d="M40.55,7.05h113.16v178.24H40.55V7.05Z"/>
    </g>
  </g>
  <g class="cls-10">
    <g class="cls-11">
      <path class="cls-12" d="M40.55,7.05h113.16v178.24H40.55V7.05Z"/>
    </g>
  </g>
  <g class="cls-13">
    <g class="cls-20">
      <path class="cls-12" d="M40.55,7.05h113.16v178.24H40.55V7.05Z"/>
    </g>
  </g>
  <g class="cls-25">
    <g class="cls-21">
      <path class="cls-12" d="M40.55,7.05h113.16v178.24H40.55V7.05Z"/>
    </g>
  </g>
  <g class="cls-5">
    <g class="cls-23">
      <path class="cls-12" d="M40.55,7.05h113.16v178.24H40.55V7.05Z"/>
    </g>
  </g>
  <g class="cls-4">
    <path class="cls-12" d="M40.55,7.05h113.16v178.24H40.55V7.05Z"/>
  </g>
  <g class="cls-6">
    <path class="cls-9" d="M40.55,7.05h113.16v178.24H40.55V7.05Z"/>
  </g>
  <g class="cls-22">
    <path class="cls-9" d="M40.55,7.05h113.16v178.24H40.55V7.05Z"/>
  </g>
  <g class="cls-17">
    <path class="cls-9" d="M40.55,7.05h113.16v178.24H40.55V7.05Z"/>
  </g>
  <g class="cls-1">
    <path class="cls-9" d="M40.55,7.05h113.16v178.24H40.55V7.05Z"/>
  </g>
  <g class="cls-8">
    <path class="cls-9" d="M40.55,7.05h113.16v178.24H40.55V7.05Z"/>
  </g>
  <path d="M66.65,203.54c0,1.2-.77,2.63-2.32,4.3-1.16,1.22-2.93,2.24-5.29,3.04-2.1.71-4.01,1.06-5.73,1.06s-2.94-.25-3.93-.75c0,1.98-.41,3.63-1.22,4.94-.53.87-1.44,1.71-2.72,2.51-1.83,1.1-3.84,1.65-6.03,1.65-2.58,0-4.46-.66-5.64-1.99-.84-.94-1.26-2.07-1.26-3.41,0-1.42.33-2.83.99-4.24.56-1.21,1-1.81,1.32-1.81.26,0,.39.13.39.39,0,.01-.2.49-.61,1.44-.4.95-.6,1.77-.6,2.48,0,2.85,2.06,4.28,6.18,4.28,3.64,0,6.27-.93,7.91-2.78,0-2.28-.52-4.34-1.56-6.19l1.04-2.5c.1,0,.6.65,1.5,1.95.34.51,1.11.77,2.29.77,5.18-5.18,8.99-7.77,11.43-7.77.92,0,1.79.27,2.62.82.83.55,1.24,1.15,1.24,1.81ZM64.6,205.04c0-.38-.38-.72-1.14-1.03-.76-.31-1.54-.47-2.33-.47-1.92,0-4.69,1.81-8.29,5.42h1.01c1.92,0,4.19-.48,6.81-1.43,2.62-.95,3.94-1.79,3.94-2.5Z"/>
  <path d="M82.84,211.55h-.89c-.2,1.27-1,2.81-2.4,4.61-1.8,2.29-3.72,3.43-5.74,3.43-1.14,0-2.37-.32-3.69-.97-1.21-.59-1.81-1.05-1.81-1.38,0-.2.12-.3.36-.3-.03,0,.31.09,1.02.28.71.19,1.42.29,2.13.29,2.59,0,4.85-1.06,6.78-3.19,1.13-1.24,1.81-2.18,2.03-2.82-.38.06-.93.08-1.66.08-1.16,0-2.07-.31-2.74-.93-.58-.51-.87-1.12-.87-1.81,0-1.02.39-2.12,1.18-3.29.83-1.22,1.65-1.83,2.46-1.83,1.26,0,2.26,1.66,2.98,4.97.29-.09.57-.14.85-.14v3ZM80.46,208.96c-.65-1.95-1.38-2.92-2.21-2.92-.32,0-.65.2-.97.6-.32.4-.48.81-.48,1.23,0,.32.2.61.6.88.4.27.9.4,1.51.4s1.11-.07,1.56-.2Z"/>
  <path d="M82.84,211.55c-.92,0-1.38-.5-1.38-1.5s.46-1.5,1.38-1.5h9.78v3h-9.78Z"/>
  <path d="M105.71,190.98c0,.34-.09.74-.26,1.18-.17.44-.43.89-.77,1.35.18.15.35.29.5.42.16.13.23.22.23.29,0,.06-.05.14-.13.26-.08.12-.19.24-.3.35-.12.12-.23.22-.35.32-.11.09-.19.13-.25.13-.08,0-.15-.02-.23-.08-.08-.05-.16-.11-.25-.18-.08-.07-.17-.13-.25-.2-.08-.07-.16-.12-.24-.16-.5.42-1.06.75-1.68.99-.62.24-1.27.35-1.95.35-.76,0-1.33-.07-1.71-.2-.38-.13-.56-.28-.56-.45,0-.13.1-.2.3-.2.28,0,.62-.02,1.02-.07.41-.05.84-.11,1.28-.2.45-.09.89-.21,1.31-.36.43-.14.8-.31,1.11-.49-.22-.16-.44-.31-.65-.47-.21-.16-.4-.32-.56-.49-.17-.17-.3-.36-.39-.56-.1-.2-.14-.41-.14-.63,0-.3.11-.63.34-.99.23-.36.62-.69,1.18-.99.37-.18.71-.31,1.04-.38.33-.07.64-.11.95-.11.46,0,.81.15,1.04.44.24.29.36.67.36,1.14ZM104.43,191.55c0-.3-.08-.54-.23-.73-.15-.19-.38-.28-.68-.28s-.57.09-.82.26c-.24.17-.36.35-.36.53,0,.58.5,1.17,1.52,1.78.16-.23.29-.47.4-.72.11-.26.17-.54.17-.84Z"/>
  <path d="M112.46,205.04c0-.38-.38-.72-1.14-1.03-.76-.31-1.54-.47-2.33-.47-1.92,0-4.69,1.81-8.29,5.42h1.01c1.92,0,4.19-.48,6.81-1.43,2.62-.95,3.94-1.79,3.94-2.5ZM114.5,203.54c0,1.2-.77,2.63-2.32,4.3-1.16,1.22-2.93,2.24-5.29,3.04-2.1.71-4.01,1.06-5.73,1.06-1.51,0-2.64-.28-3.39-.85-.61-.46-1.12-1.26-1.54-2.4-.87,1.79-2.07,2.74-3.61,2.86-.92,0-1.38-.5-1.38-1.5s.46-1.5,1.38-1.5h.34c.97,0,1.82-.38,2.55-1.14.73-.76,1.08-1.14,1.04-1.14.16,0,.3.13.42.39.53,1.35,1.28,2.03,2.25,2.03,5.17-5.18,8.98-7.77,11.43-7.77.92,0,1.79.27,2.62.82.83.55,1.24,1.15,1.24,1.81Z"/>
  <path d="M130.69,211.55h-1.21c-.96,3.1-2.25,5.45-3.86,7.04-1.44,1.42-3.02,2.13-4.73,2.13-.68,0-1.37-.17-2.07-.49-1.78-.83-2.67-1.45-2.67-1.85,0-.24.12-.35.36-.35.07,0,.4.06.98.18.58.12,1.18.18,1.82.18,1.73,0,3.51-.74,5.34-2.23,1.76-1.43,3.01-3.08,3.75-4.94-1.38-.7-2.07-1.27-2.07-1.7l.45-2.23c.03-.18.09-.28.2-.28-.01,0,.37.26,1.15.78.78.52,1.49.78,2.12.78h.44v3Z"/>
  <path d="M130.69,211.55c-.92,0-1.38-.5-1.38-1.5s.46-1.5,1.38-1.5h9.78v3h-9.78Z"/>
  <path d="M150.82,193.07l-.63,1.48-7.28,2.23.66-1.5,7.25-2.21Z"/>
  <path d="M151.63,208.12c0,.47-.17,1.01-.51,1.62-.38.72-.82,1.09-1.33,1.09-1.96,0-3.79-.7-5.52-2.09-1.05,1.88-2.26,2.82-3.63,2.82h-.18c-.92,0-1.38-.5-1.38-1.5s.46-1.5,1.38-1.5h.85c1.1,0,2.28-.91,3.53-2.74.95-1.39,1.63-2.3,2.07-2.72.49-.45,1.03-.68,1.64-.68.71,0,1.41.67,2.09,2.02.65,1.29.98,2.52.98,3.69ZM149.68,207.8c0-.45-.21-1.04-.63-1.78-.47-.81-.92-1.22-1.34-1.22-.28,0-.63.22-1.04.67-.38.38-.65.75-.81,1.1.2.39.78.75,1.73,1.09.82.31,1.42.46,1.82.46.18,0,.28-.11.28-.32Z"/>
</svg>